EMG
version=1
nRows=24
nColumns=17
inDegrees=no
endheader
time	_right_gast_med	_right_glut_max	_left_gast_med	_left_glut_max	_right_glut_med	_right_bic_fem	_right_rect_fem	_right_vast_lat	_right_vast_med	_right_tens_fasc_lat	_left_glut_med	_left_bic_fem	_left_rect_fem	_left_vast_lat	_left_vast_med	_left_tens_fasc_lat
      1.13000000	      0.00857064	     -0.01386581	      0.01229864	     -0.02492442	      0.01468064	     -0.01156337	     -0.06135716	     -0.00663375	      0.17846587	     -0.02863785	      0.00753439	     -0.00819565	      0.00921149	     -0.00929060	      0.03481804	     -0.01393920
      1.14000000	     -0.14719823	     -0.00217041	      0.01147580	     -0.04662114	      0.01380851	     -0.00423933	     -0.03571408	     -0.01409009	      0.09112988	     -0.06427392	      0.00816668	      0.00948287	      0.01463205	     -0.00370278	      0.03083990	     -0.01577917
      1.15000000	     -0.09752148	      0.02713054	      0.00767917	     -0.08448603	     -0.01195241	      0.00719249	     -0.00788371	     -0.03838213	      0.10344460	     -0.06015079	      0.01254654	      0.03386569	      0.01758948	      0.00708517	      0.02739431	     -0.01365192
      1.16000000	      0.50221682	      0.03854319	      0.01116158	     -0.11432176	     -0.02557603	      0.00921824	      0.00982518	     -0.05516117	      0.12881292	     -0.02468035	      0.01760130	      0.04115464	      0.01538717	      0.01529917	      0.02775962	     -0.01283521
      1.17000000	      0.93042141	      0.02006857	      0.01451866	     -0.11564412	      0.01013211	      0.01928154	      0.01443534	     -0.03855366	      0.01120533	      0.00630148	      0.01440699	      0.02585204	      0.00595926	      0.01944234	      0.02383176	     -0.01792206
      1.18000000	      0.45596564	     -0.00263487	      0.01482148	     -0.09740520	      0.05707573	      0.01994784	      0.01086882	      0.00810238	     -0.12079674	      0.01416469	      0.00493927	      0.00704944	     -0.00039346	      0.02307339	      0.00594950	     -0.02466455
      1.19000000	     -0.15556711	     -0.00377772	      0.01232063	     -0.08273272	      0.05912066	     -0.01681522	      0.01972115	      0.06587579	     -0.09078117	      0.01125399	      0.00023667	     -0.00119010	      0.00734878	      0.02310096	     -0.00765074	     -0.01984297
      1.20000000	     -0.21058384	      0.01245428	      0.00916687	     -0.07250487	      0.03309843	     -0.05609054	      0.04107196	      0.06528644	      0.03432653	      0.00680698	      0.00009563	      0.00292631	      0.01892228	      0.01276732	      0.01937095	     -0.00656775
      1.21000000	     -0.19760340	      0.01850647	      0.00667338	     -0.05195934	      0.01524635	     -0.04770027	      0.04249251	      0.00744246	      0.10494402	     -0.00249773	     -0.00187207	      0.00951225	      0.02031410	     -0.00135776	      0.07859811	      0.01245109
      1.22000000	     -0.59377211	      0.00373987	      0.00139856	     -0.01362118	      0.00909883	     -0.00293824	      0.01736499	     -0.01745243	      0.04599643	     -0.01067325	     -0.00342399	      0.00886111	      0.01384780	     -0.00290132	      0.09597031	      0.04059356
      1.23000000	     -0.55895197	     -0.00582267	     -0.00692400	      0.02865979	      0.00706904	      0.02495079	      0.00056626	      0.04110685	     -0.07112125	     -0.00736502	     -0.00310181	      0.00334210	      0.01110939	      0.01740230	      0.02640881	      0.04606409
      1.24000000	      0.19101399	      0.02236271	     -0.01474235	      0.02378728	      0.00698877	      0.02732043	      0.00080606	      0.08329844	     -0.07786813	     -0.00324046	     -0.00275941	     -0.00469057	      0.01781066	      0.04310403	     -0.05702883	      0.01567624
      1.25000000	      0.53971171	      0.06752316	     -0.01807277	     -0.06725578	      0.00811285	      0.02777381	     -0.00213547	      0.04216744	      0.01182521	     -0.01033780	     -0.00085466	     -0.01126584	      0.02164612	      0.03995904	     -0.06289826	     -0.00164348
      1.26000000	      0.18507040	      0.05074785	     -0.00930595	     -0.15608619	      0.00888713	      0.01871526	     -0.00447335	     -0.00740011	      0.02568597	     -0.01324899	      0.00420259	     -0.01491501	      0.01156512	      0.00098222	     -0.02314893	      0.01649343
      1.27000000	     -0.16929066	     -0.03450898	      0.01463553	     -0.09781986	      0.00970925	     -0.00268039	      0.00306272	     -0.01571280	     -0.06749234	     -0.00055075	      0.01036780	     -0.02647972	     -0.00361314	     -0.03868430	     -0.00777195	      0.04294067
      1.28000000	     -0.23569869	     -0.07109416	      0.03943015	      0.01925770	      0.01027541	     -0.01161392	      0.00933962	     -0.01509325	     -0.13601294	      0.01418652	      0.01034729	     -0.04669431	     -0.02094192	     -0.03703517	     -0.00665273	      0.05447695
      1.29000000	     -0.19420600	      0.00129735	      0.05034336	      0.03656669	      0.00698864	     -0.00068965	      0.01266372	     -0.01702786	     -0.09856156	      0.02010258	      0.00190560	     -0.05051045	     -0.03279672	      0.00544468	      0.00189936	      0.04600420
      1.30000000	     -0.21376249	      0.10628045	      0.04263333	      0.01976011	     -0.00214429	      0.01319551	      0.01961169	     -0.01071938	      0.00402733	      0.01771294	     -0.00305445	     -0.01380873	     -0.02117605	      0.04472576	      0.01344159	      0.02675713
      1.31000000	     -0.29296061	      0.13998449	      0.01920206	      0.02058242	     -0.01035240	      0.01864701	      0.01976777	     -0.00117624	      0.08682809	      0.01237418	      0.00318840	      0.04670730	      0.00825285	      0.05298270	      0.02998907	      0.00366290
      1.32000000	     -0.32125685	      0.07299586	     -0.00588994	      0.01318159	     -0.01255528	      0.01747146	      0.01005492	      0.00848406	      0.07930179	      0.01041640	      0.01293523	      0.08731581	      0.03084963	      0.03460782	      0.04031238	     -0.01761146
      1.33000000	     -0.23903801	     -0.01349499	     -0.01900490	      0.03544366	     -0.00962507	      0.01368396	      0.00868215	      0.01711874	     -0.00188199	      0.01457211	      0.01931681	      0.08722779	      0.02993710	      0.00574731	      0.02270802	     -0.02218000
      1.34000000	     -0.04512092	     -0.05118621	     -0.01099292	      0.10076828	     -0.00069727	      0.01443399	      0.01636222	      0.01996885	     -0.05970391	      0.02592456	      0.02159906	      0.06058342	      0.01095011	     -0.01224230	     -0.01055272	     -0.00951621
      1.35000000	      0.19084601	     -0.06364847	      0.01481320	      0.14122841	      0.01027219	      0.01806594	      0.01630279	      0.01622829	     -0.05343033	      0.04178065	      0.02107766	      0.03392953	     -0.00286404	     -0.00818295	     -0.02663504	      0.00248950
      1.36000000	      0.04019150	     -0.07267886	      0.03002985	      0.12041325	      0.01509595	      0.01426616	      0.00859164	      0.01001633	     -0.02683369	      0.05015473	      0.02084099	      0.02087723	     -0.00136476	      0.00624406	     -0.02023887	      0.00544120
